<?xml version="1.0" encoding="iso-8859-1"?>
<!-- Generator: Adobe Illustrator 19.0.0, SVG Export Plug-In . SVG Version: 6.00 Build 0)  -->
<svg version="1.1" id="Layer_1" xmlns="http://www.w3.org/2000/svg" xmlns:xlink="http://www.w3.org/1999/xlink" x="0px" y="0px"
	 viewBox="0 0 512 512" style="enable-background:new 0 0 512 512;" xml:space="preserve">
<g>
	<g>
		<path d="M104.097,276.258v63.581h303.805v-63.581H104.097z M392.366,324.303H119.634v-32.508h272.732V324.303z"/>
	</g>
</g>
<g>
	<g>
		<rect x="144.137" y="355.951" width="96.326" height="15.536"/>
	</g>
</g>
<g>
	<g>
		<rect x="264.286" y="355.951" width="15.536" height="15.536"/>
	</g>
</g>
<g>
	<g>
		<rect x="264.286" y="380.809" width="15.536" height="15.536"/>
	</g>
</g>
<g>
	<g>
		<rect x="264.286" y="404.632" width="15.536" height="15.536"/>
	</g>
</g>
<g>
	<g>
		<rect x="296.394" y="355.951" width="71.468" height="15.536"/>
	</g>
</g>
<g>
	<g>
		<rect x="296.394" y="380.809" width="71.468" height="15.536"/>
	</g>
</g>
<g>
	<g>
		<rect x="296.394" y="404.632" width="71.468" height="15.536"/>
	</g>
</g>
<g>
	<g>
		<rect x="135.851" y="300.02" width="15.536" height="15.536"/>
	</g>
</g>
<g>
	<g>
		<rect x="167.96" y="300.02" width="15.536" height="15.536"/>
	</g>
</g>
<g>
	<g>
		<rect x="200.068" y="300.02" width="15.536" height="15.536"/>
	</g>
</g>
<g>
	<g>
		<rect x="247.713" y="171.585" width="15.536" height="24.858"/>
	</g>
</g>
<g>
	<g>
		<rect x="32.274" y="76.294" width="15.536" height="15.536"/>
	</g>
</g>
<g>
	<g>
		<rect x="63.347" y="76.294" width="16.572" height="15.536"/>
	</g>
</g>
<g>
	<g>
		<rect x="95.456" y="76.294" width="16.572" height="15.536"/>
	</g>
</g>
<g>
	<g>
		<path d="M0,44.041v423.919h512V44.041H0z M496.465,452.424H15.536V59.577h480.927v16.718H127.566v15.536h368.899V452.424z"/>
	</g>
</g>
<g>
	<g>
		<rect x="408.257" y="115.653" width="64.217" height="15.536"/>
	</g>
</g>
<g>
	<g>
		<path d="M303.646,178.831l12.298,7.686l8.234-13.176l-68.177-42.611l-68.177,42.611l8.234,13.176l12.298-7.686v56.972h-16.572
			v15.536h128.435v-15.536h-16.572V178.831z M288.109,235.803h-24.858v-15.536h-15.536v15.536h-23.823v-66.682L256,149.053
			l32.109,20.068V235.803z"/>
	</g>
</g>
<g>
</g>
<g>
</g>
<g>
</g>
<g>
</g>
<g>
</g>
<g>
</g>
<g>
</g>
<g>
</g>
<g>
</g>
<g>
</g>
<g>
</g>
<g>
</g>
<g>
</g>
<g>
</g>
<g>
</g>
</svg>
