<?xml version="1.0" encoding="iso-8859-1"?>
<!-- Generator: Adobe Illustrator 19.0.0, SVG Export Plug-In . SVG Version: 6.00 Build 0)  -->
<svg version="1.1" id="Layer_1" xmlns="http://www.w3.org/2000/svg" xmlns:xlink="http://www.w3.org/1999/xlink" x="0px" y="0px"
	 viewBox="0 0 511.65 511.65" style="enable-background:new 0 0 511.65 511.65;" xml:space="preserve">
<g>
	<g>
		<g>
			<path d="M264.358,196.267v-8.463c9.376-1.908,17.834-6.907,24.049-14.249c11.053-13.071,8.549-32.902-5.025-43.47l-19.024-14.797
				V68.776c9.943,3.514,17.067,12.989,17.067,24.138c0,4.713,3.821,8.533,8.533,8.533c4.713,0,8.533-3.82,8.533-8.533
				c0-20.646-14.658-37.859-34.133-41.812v-8.436c0-4.713-3.82-8.533-8.533-8.533c-4.713,0-8.533,3.82-8.533,8.533v8.452
				c-9.376,1.908-17.834,6.907-24.049,14.249c-11.054,13.072-8.549,32.914,5.029,43.473l19.02,14.794v46.511
				c-9.941-3.515-17.067-12.993-17.067-24.137c0-4.713-3.821-8.533-8.533-8.533s-8.533,3.821-8.533,8.533
				c0,20.64,14.659,37.858,34.133,41.811v8.447c0,4.713,3.82,8.533,8.533,8.533C260.538,204.8,264.358,200.979,264.358,196.267z
				 M238.75,95.369c-6.051-4.706-7.154-13.447-2.478-18.978c2.965-3.502,6.767-6.112,11.02-7.614v33.236L238.75,95.369z
				 M272.901,143.554c6.052,4.712,7.154,13.447,2.478,18.978c-2.965,3.502-6.767,6.112-11.02,7.614V136.91L272.901,143.554z"/>
			<path d="M366.758,375.117h-102.4v-25.989c47.87-4.306,85.333-44.478,85.333-93.477c0-4.713-3.821-8.533-8.533-8.533
				c-31.764,0-59.819,15.745-76.8,39.861v-48.351c61.998-4.376,110.933-56.048,110.933-119.16C375.292,53.484,321.807,0,255.825,0
				S136.358,53.484,136.358,119.467c0,63.112,48.935,114.784,110.933,119.16v48.351c-16.981-24.116-45.036-39.861-76.8-39.861
				c-4.713,0-8.533,3.82-8.533,8.533c0,48.999,37.463,89.171,85.333,93.477v25.989h-102.4c-4.713,0-8.533,3.82-8.533,8.533v34.133
				c0,4.713,3.82,8.533,8.533,8.533h10.718l23.776,79.252c1.083,3.609,4.405,6.081,8.173,6.081h136.533
				c3.768,0,7.091-2.472,8.173-6.081l23.776-79.252h10.718c4.713,0,8.533-3.82,8.533-8.533V383.65
				C375.292,378.937,371.471,375.117,366.758,375.117z M332.097,264.711c-3.496,29.817-24.04,54.378-51.635,63.703l15.53-15.53
				c3.333-3.333,3.333-8.735,0-12.068c-3.332-3.332-8.735-3.332-12.068,0l-15.53,15.53
				C277.72,288.751,302.28,268.208,332.097,264.711z M153.425,119.467c0-56.557,45.844-102.4,102.4-102.4s102.4,45.844,102.4,102.4
				s-45.844,102.4-102.4,102.4S153.425,176.023,153.425,119.467z M179.553,264.711c29.849,3.5,54.429,24.084,63.732,51.724
				l-15.679-15.629c-3.338-3.327-8.741-3.318-12.068,0.02s-3.318,8.741,0.02,12.068l15.543,15.492
				C203.548,319.038,183.045,294.496,179.553,264.711z M317.743,494.583H193.907l-20.48-68.267h164.795L317.743,494.583z
				 M358.225,409.25h-8.533H161.958h-8.533v-17.067h204.8V409.25z"/>
		</g>
	</g>
</g>
<g>
</g>
<g>
</g>
<g>
</g>
<g>
</g>
<g>
</g>
<g>
</g>
<g>
</g>
<g>
</g>
<g>
</g>
<g>
</g>
<g>
</g>
<g>
</g>
<g>
</g>
<g>
</g>
<g>
</g>
</svg>
